<?xml version="1.0" encoding="utf-8"?>
<!-- Generator: Adobe Illustrator 26.3.1, SVG Export Plug-In . SVG Version: 6.00 Build 0)  -->
<svg version="1.1" id="Слой_1" xmlns="http://www.w3.org/2000/svg" xmlns:xlink="http://www.w3.org/1999/xlink" x="0px" y="0px"
	 viewBox="0 0 85.6 61.2" style="enable-background:new 0 0 85.6 61.2;" xml:space="preserve">
<style type="text/css">
	.st0{fill:#6197FF;}
	.st1{fill:#FFFFFF;}
</style>
<path class="st0" d="M73.8,25l-0.3,12.6c0,2.1-1,4.1-2.5,5.6l-0.4,0.3c-1.6,1.5-3.7,2.3-5.9,2.3h-8.6c-2.2,0-4.2-0.9-5.7-2.6l-0.9-1
	c-1-1.2-1.6-2.8-1.7-4.4l-0.1-5c0-0.2-0.2-0.4-0.5-0.5l-5.7-0.2c-0.3,0-0.5,0.2-0.5,0.5L41,40.1c0,0.1,0,0.2-0.1,0.3l-2.2,2.7
	c-1.4,1.7-3.5,2.7-5.7,2.7h-8.1c-2.1,0-4.1-0.8-5.7-2.2l-0.8-0.7c-1.3-1.2-2-2.9-2-4.6L16.2,25c0-0.1,0-0.2,0.1-0.3l14-17.3
	c0.1-0.1,0.2-0.2,0.4-0.2l7.2,0.3c0.3,0,0.4,0.2,0.4,0.5v2.5c0,0.2-0.2,0.4-0.4,0.5l-6.6,0.5c-0.1,0-0.2,0.1-0.3,0.2l-6.3,7.9
	c-0.2,0.3,0,0.7,0.4,0.8l12.2,0.3c0.1,0,0.3,0.1,0.4,0.2l2.8,3.7c0,0.1,0.1,0.1,0.1,0.2l0.7,2.9c0.1,0.2,0.2,0.4,0.5,0.4h5.8
	c0.2,0,0.4-0.1,0.5-0.4l0.7-2.9c0-0.1,0-0.1,0.1-0.2l2.9-3.7c0.1-0.1,0.2-0.2,0.4-0.2l12.6-0.3c0.4,0,0.6-0.5,0.4-0.8l-6.5-7.9
	c-0.1-0.1-0.2-0.2-0.3-0.2l-6.9-0.5c-0.2,0-0.4-0.2-0.4-0.5V8c0-0.3,0.2-0.5,0.4-0.5l7.5-0.3c0.1,0,0.3,0.1,0.4,0.2l14.5,17.3
	C73.7,24.8,73.8,24.9,73.8,25z"/>
<path class="st1" d="M5-14L5-14z"/>
</svg>
